<svg xmlns="http://www.w3.org/2000/svg" version="1.1" xmlns:xlink="http://www.w3.org/1999/xlink" xmlns:svgjs="http://svgjs.dev/svgjs" width="1500" height="651" viewBox="0 0 1500 651"><g transform="matrix(1,0,0,1,-0.9090909090909918,-0.631509963989231)"><svg viewBox="0 0 396 172" data-background-color="#0e66a9" preserveAspectRatio="xMidYMid meet" height="651" width="1500" xmlns="http://www.w3.org/2000/svg" xmlns:xlink="http://www.w3.org/1999/xlink"><g id="tight-bounds" transform="matrix(1,0,0,1,0.2400000000000091,0.1668505588420146)"><svg viewBox="0 0 395.52 171.66629888231597" height="171.66629888231597" width="395.52"><g><svg viewBox="0 0 395.52 171.66629888231597" height="171.66629888231597" width="395.52"><g><svg viewBox="0 0 395.52 171.66629888231597" height="171.66629888231597" width="395.52"><g transform="matrix(1,0,0,1,0,106.09665961962232)"><svg viewBox="0 0 395.52 65.56963926269366" height="65.56963926269366" width="395.52"><g id="textblocktransform"><svg viewBox="0 0 395.52 65.56963926269366" height="65.56963926269366" width="395.52" id="textblock"><g><svg viewBox="0 0 395.52 65.56963926269366" height="65.56963926269366" width="395.52"><g transform="matrix(1,0,0,1,0,0)"><svg width="395.52" viewBox="2.93 -35.3 215.87 35.79" height="65.56963926269366" data-palette-color="#f9f3f1"><path d="M6.25-29.17L6.25-29.17Q5.57-29.17 4.97-29.42 4.37-29.66 3.92-30.08 3.47-30.49 3.2-31.04 2.93-31.59 2.93-32.23L2.93-32.23Q2.93-32.89 3.2-33.45 3.47-34.01 3.92-34.42 4.37-34.84 4.97-35.07 5.57-35.3 6.25-35.3L6.25-35.3Q6.93-35.3 7.54-35.07 8.15-34.84 8.61-34.42 9.06-34.01 9.33-33.45 9.59-32.89 9.59-32.23L9.59-32.23Q9.59-31.59 9.33-31.04 9.06-30.49 8.61-30.08 8.15-29.66 7.54-29.42 6.93-29.17 6.25-29.17ZM3.44-4.2L3.44-24.95 8.52-24.95 8.52-4.1 9.96-3.08 9.96 0 8.57 0 8.52-0.05 8.52 0Q6.1 0 4.77-0.98 3.44-1.95 3.44-4.2L3.44-4.2ZM14.82-1.12L14.82-1.12Q14.82-1.68 14.91-2.34L14.91-2.34Q14.99-2.91 15.15-3.63 15.31-4.35 15.62-5.13L15.62-5.13Q16.7-4.71 17.87-4.39L17.87-4.39Q18.87-4.13 20.04-3.89 21.21-3.66 22.36-3.66L22.36-3.66Q23.39-3.66 24.27-3.74 25.14-3.81 25.79-4.14 26.44-4.47 26.8-5.14 27.17-5.81 27.17-7.01L27.17-7.01Q27.17-8.45 26.28-9.28 25.39-10.11 23.19-10.52L23.19-10.52Q20.92-10.96 19.37-11.69 17.82-12.43 16.86-13.39 15.89-14.36 15.46-15.55 15.04-16.75 15.04-18.12L15.04-18.12Q15.04-20.17 15.7-21.61 16.35-23.05 17.61-23.94 18.87-24.83 20.74-25.23 22.6-25.63 25.02-25.63L25.02-25.63Q26.71-25.63 28.01-25.4 29.32-25.17 30.2-24.9L30.2-24.9Q31.22-24.58 31.98-24.17L31.98-24.17Q31.91-23.63 31.71-23L31.71-23Q31.54-22.46 31.26-21.78 30.98-21.09 30.52-20.39L30.52-20.39Q29.86-20.78 29-21.07L29-21.07Q28.27-21.34 27.24-21.55 26.22-21.75 24.9-21.75L24.9-21.75Q23.87-21.75 23.01-21.66 22.14-21.56 21.52-21.22 20.9-20.87 20.55-20.18 20.21-19.48 20.21-18.29L20.21-18.29Q20.21-17.7 20.37-17.22 20.53-16.75 21.01-16.36 21.48-15.97 22.35-15.64 23.22-15.31 24.66-14.99L24.66-14.99Q26.9-14.5 28.4-13.87 29.9-13.23 30.8-12.33 31.69-11.43 32.07-10.22 32.44-9.01 32.44-7.35L32.44-7.35Q32.44-5.57 31.88-4.13 31.32-2.69 30.12-1.66 28.93-0.63 27.05-0.07 25.17 0.49 22.51 0.49L22.51 0.49Q20.8 0.49 19.39 0.24 17.99 0 16.97-0.32L16.97-0.32Q15.77-0.66 14.82-1.12ZM37.98-4.2L37.98-35.13 43.04-35.13 43.04-4.1 44.48-3.08 44.48 0 43.09 0 43.04-0.05 43.04 0Q40.62 0 39.3-0.98 37.98-1.95 37.98-4.2L37.98-4.2ZM48.31-7.13L48.31-7.13Q48.31-9.16 48.89-10.57 49.48-11.99 50.62-12.89 51.75-13.79 53.37-14.25 55-14.7 57.1-14.82L57.1-14.82 62.54-15.11 62.54-17.07Q62.54-18.38 62.31-19.24 62.08-20.09 61.54-20.61 61-21.12 60.11-21.33 59.22-21.53 57.9-21.53L57.9-21.53Q56.58-21.53 55.4-21.24 54.22-20.95 53.34-20.61L53.34-20.61Q52.29-20.19 51.41-19.68L51.41-19.68Q50.87-20.43 50.55-21.13 50.24-21.83 50.07-22.39L50.07-22.39Q49.85-23.02 49.77-23.61L49.77-23.61Q50.94-24.19 52.29-24.63L52.29-24.63Q53.46-25.02 54.99-25.34 56.51-25.66 58.2-25.66L58.2-25.66Q60.98-25.66 62.81-25.17 64.64-24.68 65.73-23.69 66.81-22.71 67.24-21.2 67.67-19.7 67.67-17.65L67.67-17.65 67.67-4.03 69.72-1.54 69.72 0 65.2 0 63.32-2.17 62.44-2.17Q62.32-2.05 61.8-1.62 61.27-1.2 60.45-0.72 59.64-0.24 58.6 0.12 57.56 0.49 56.39 0.49L56.39 0.49Q54.56 0.49 53.07-0.06 51.58-0.61 50.52-1.62 49.46-2.64 48.88-4.04 48.31-5.44 48.31-7.13ZM53.63-7.57L53.63-7.57Q53.63-6.45 53.95-5.7 54.26-4.96 54.84-4.52 55.41-4.08 56.23-3.91 57.05-3.74 58.05-3.74L58.05-3.74Q58.98-3.74 59.79-3.97 60.61-4.2 61.22-4.49L61.22-4.49Q61.93-4.81 62.54-5.25L62.54-5.25 62.54-11.82 57.63-11.5Q56.49-11.43 55.72-11.11 54.95-10.79 54.48-10.28 54.02-9.77 53.83-9.07 53.63-8.37 53.63-7.57ZM74.67 0L74.67-20.48 72.74-22.46 72.74-25.22 77.24-25.22 79.34-23.32 80.04-23.46Q80.21-23.61 80.84-23.97 81.46-24.34 82.38-24.71 83.29-25.07 84.46-25.35 85.63-25.63 86.93-25.63L86.93-25.63Q88.98-25.63 90.58-25.02 92.18-24.41 93.28-23.28 94.37-22.14 94.94-20.56 95.5-18.97 95.5-16.99L95.5-16.99 95.5 0 90.25 0 90.25-16.48Q90.25-19.14 89.14-20.4 88.03-21.66 85.61-21.66L85.61-21.66Q84.41-21.66 83.39-21.45 82.36-21.24 81.58-20.97L81.58-20.97Q80.68-20.68 79.9-20.29L79.9-20.29 79.9 0 74.67 0ZM100.92-12.04L100.92-12.04Q100.92-15.53 101.89-18.09 102.87-20.65 104.54-22.34 106.21-24.02 108.41-24.84 110.61-25.66 113.07-25.66L113.07-25.66Q114-25.66 114.73-25.57 115.47-25.49 115.98-25.37L115.98-25.37Q116.59-25.24 117.05-25.07L117.05-25.07 117.05-35.13 122.25-35.13 122.25-4.03 124.4-1.54 124.4 0 119.52 0 117.83-1.93 117-1.93Q116.88-1.81 116.5-1.42 116.13-1.03 115.43-0.61 114.73-0.2 113.72 0.15 112.71 0.49 111.34 0.49L111.34 0.49Q109.53 0.49 107.68-0.24 105.82-0.98 104.32-2.51 102.82-4.05 101.87-6.41 100.92-8.76 100.92-12.04ZM106.38-12.04L106.38-12.04Q106.38-9.77 106.86-8.15 107.34-6.54 108.22-5.51 109.09-4.47 110.36-3.99 111.63-3.52 113.22-3.52L113.22-3.52Q113.83-3.52 114.51-3.71 115.2-3.91 115.76-4.17L115.76-4.17Q116.42-4.44 117.05-4.83L117.05-4.83 117.05-21.34Q116.74-21.53 116.11-21.73 115.49-21.92 114.39-21.92L114.39-21.92Q110.56-21.92 108.47-19.4 106.38-16.87 106.38-12.04ZM141.49-12.52L141.49-12.52Q141.49-15.75 142.27-18.2 143.05-20.65 144.55-22.31 146.05-23.97 148.24-24.82 150.42-25.66 153.23-25.66L153.23-25.66Q154.25-25.66 155.3-25.46 156.35-25.27 157.21-25.05L157.21-25.05Q158.19-24.78 159.11-24.44L159.11-24.44Q159.04-23.75 158.89-23.02L158.89-23.02Q158.77-22.39 158.54-21.64 158.31-20.9 157.97-20.19L157.97-20.19Q157.31-20.46 156.55-20.7L156.55-20.7Q155.89-20.9 155.04-21.07 154.18-21.24 153.23-21.24L153.23-21.24Q151.59-21.24 150.39-20.64 149.18-20.04 148.37-18.91 147.57-17.77 147.17-16.16 146.78-14.55 146.78-12.55L146.78-12.55Q146.78-8.15 148.48-5.88 150.18-3.61 153.47-3.61L153.47-3.61Q154.45-3.61 155.33-3.77 156.21-3.93 156.92-4.13L156.92-4.13Q157.72-4.37 158.43-4.66L158.43-4.66Q158.67-4.13 158.87-3.49L158.87-3.49Q159.04-2.93 159.17-2.21 159.31-1.49 159.28-0.66L159.28-0.66Q158.38-0.34 157.4-0.07L157.4-0.07Q156.57 0.15 155.54 0.32 154.5 0.49 153.47 0.49L153.47 0.49Q147.74 0.49 144.61-2.78 141.49-6.05 141.49-12.52ZM162.06-7.13L162.06-7.13Q162.06-9.16 162.65-10.57 163.24-11.99 164.37-12.89 165.51-13.79 167.13-14.25 168.75-14.7 170.85-14.82L170.85-14.82 176.3-15.11 176.3-17.07Q176.3-18.38 176.07-19.24 175.83-20.09 175.3-20.61 174.76-21.12 173.87-21.33 172.98-21.53 171.66-21.53L171.66-21.53Q170.34-21.53 169.16-21.24 167.97-20.95 167.09-20.61L167.09-20.61Q166.04-20.19 165.17-19.68L165.17-19.68Q164.63-20.43 164.31-21.13 163.99-21.83 163.82-22.39L163.82-22.39Q163.6-23.02 163.53-23.61L163.53-23.61Q164.7-24.19 166.04-24.63L166.04-24.63Q167.22-25.02 168.74-25.34 170.27-25.66 171.95-25.66L171.95-25.66Q174.74-25.66 176.57-25.17 178.4-24.68 179.48-23.69 180.57-22.71 181-21.2 181.43-19.7 181.43-17.65L181.43-17.65 181.43-4.03 183.48-1.54 183.48 0 178.96 0 177.08-2.17 176.2-2.17Q176.08-2.05 175.55-1.62 175.03-1.2 174.21-0.72 173.39-0.24 172.36 0.12 171.32 0.49 170.15 0.49L170.15 0.49Q168.31 0.49 166.83-0.06 165.34-0.61 164.27-1.62 163.21-2.64 162.64-4.04 162.06-5.44 162.06-7.13ZM167.39-7.57L167.39-7.57Q167.39-6.45 167.7-5.7 168.02-4.96 168.6-4.52 169.17-4.08 169.99-3.91 170.81-3.74 171.81-3.74L171.81-3.74Q172.73-3.74 173.55-3.97 174.37-4.2 174.98-4.49L174.98-4.49Q175.69-4.81 176.3-5.25L176.3-5.25 176.3-11.82 171.39-11.5Q170.24-11.43 169.47-11.11 168.71-10.79 168.24-10.28 167.78-9.77 167.58-9.07 167.39-8.37 167.39-7.57ZM186.67-25.22L191.16-25.22 193.68-22.58Q193.95-23.19 194.37-23.74 194.8-24.29 195.38-24.71 195.95-25.12 196.67-25.37 197.39-25.61 198.24-25.61L198.24-25.61Q198.95-25.61 199.61-25.5 200.27-25.39 201.05-25.12L201.05-25.12Q201.08-25.07 201.11-24.73 201.15-24.39 201.15-23.88L201.15-23.88Q201.15-23.49 201.1-22.96 201.05-22.44 200.94-21.89 200.83-21.34 200.62-20.8 200.42-20.26 200.1-19.87L200.1-19.87 199.64-19.75Q199.15-20 198.55-20.17 197.95-20.34 197.32-20.34L197.32-20.34Q196.34-20.34 195.68-20.2 195.02-20.07 194.61-19.92L194.61-19.92Q194.12-19.75 193.83-19.53L193.83-19.53 193.83 0 188.6 0 188.6-20.48 186.67-22.46 186.67-25.22ZM206.3-6.98L206.3-21.17 203.1-21.17Q203.08-21.44 203.05-21.75L203.05-21.75Q203.03-22.02 203.01-22.39 203-22.75 203-23.19L203-23.19Q203-23.63 203.03-24.01 203.05-24.39 203.1-24.95L203.1-24.95 206.3-24.95 206.3-28.83 209.11-32.01 211.28-32.01 211.28-24.95 218.19-24.95Q218.24-24.71 218.27-24.37 218.31-24.02 218.31-23.71L218.31-23.71Q218.31-23.14 218.2-22.68 218.09-22.22 217.97-21.88L217.97-21.88Q217.82-21.48 217.63-21.17L217.63-21.17 211.28-21.17 211.28-7.01Q211.28-5.22 211.88-4.42 212.48-3.61 213.79-3.61L213.79-3.61Q214.35-3.61 214.98-3.75 215.6-3.88 216.16-4.08L216.16-4.08Q216.8-4.3 217.46-4.57L217.46-4.57Q217.94-3.93 218.22-3.32 218.51-2.71 218.63-2.22L218.63-2.22Q218.77-1.66 218.8-1.17L218.8-1.17Q218.11-0.71 217.26-0.34L217.26-0.34Q216.5-0.02 215.45 0.23 214.4 0.49 213.04 0.49L213.04 0.49Q211.13 0.49 209.85 0.01 208.57-0.46 207.78-1.4 206.98-2.34 206.64-3.75 206.3-5.15 206.3-6.98L206.3-6.98Z" opacity="1" transform="matrix(1,0,0,1,0,0)" fill="#f9f3f1" class="wordmark-text-0" data-fill-palette-color="primary" id="text-0"></path></svg></g></svg></g></svg></g></svg></g><g transform="matrix(1,0,0,1,145.66197513578646,0)"><svg viewBox="0 0 104.19604972842707 90.61724146104265" height="90.61724146104265" width="104.19604972842707"><g><svg xmlns="http://www.w3.org/2000/svg" xmlns:xlink="http://www.w3.org/1999/xlink" version="1.1" x="0" y="0" viewBox="27.503 30.434 44.997 39.132999999999996" enable-background="new 0 0 100 100" xml:space="preserve" height="90.61724146104265" width="104.19604972842707" class="icon-icon-0" data-fill-palette-color="accent" id="icon-0"><g fill="#fafafa" data-fill-palette-color="accent"><g fill="#fafafa" data-fill-palette-color="accent"><path fill="#fafafa" d="M49.164 62.809A3.38 3.38 0 0 0 45.785 66.188C45.785 68.051 47.298 69.567 49.164 69.567S52.543 68.051 52.543 66.188A3.38 3.38 0 0 0 49.164 62.809M49.164 67.911A1.725 1.725 0 1 1 49.16 64.457 1.725 1.725 0 0 1 49.164 67.911" data-fill-palette-color="accent"></path></g><g fill="#fafafa" data-fill-palette-color="accent"><path fill="#fafafa" d="M62.401 62.809A3.38 3.38 0 0 0 59.022 66.188 3.38 3.38 0 0 0 62.401 69.567 3.384 3.384 0 0 0 65.78 66.188 3.38 3.38 0 0 0 62.401 62.809M62.401 67.911A1.727 1.727 0 1 1 62.401 64.459C63.351 64.459 64.123 65.23 64.123 66.187 64.123 67.141 63.352 67.911 62.401 67.911" data-fill-palette-color="accent"></path></g><g fill="#fafafa" data-fill-palette-color="accent"><polygon fill="#fafafa" points="48.671,45.436 54.578,51.342 60.485,45.436 58.146,45.436 55.409,48.175 55.409,40.84     53.752,40.84 53.752,48.175 51.016,45.436   " data-fill-palette-color="accent"></polygon></g><g fill="#fafafa" data-fill-palette-color="accent"><path fill="#fafafa" d="M64.655 40.84H56.648V45.179L57.633 44.191H63.481L54.578 53.096 45.681 44.191H51.528L52.513 45.179V40.84H38.102L39.496 46.267H38.725L34.634 30.434H27.503V32.089H33.35L40.368 59.257H42.826L43.488 61.84H67.11L72.5 40.84zM41.645 57.6L39.147 47.921H39.918L42.401 57.6z" data-fill-palette-color="accent"></path></g></g></svg></g></svg></g><g></g></svg></g></svg></g><defs></defs></svg><rect width="395.52" height="171.66629888231597" fill="none" stroke="none" visibility="hidden"></rect></g></svg></g></svg>